# xmcd
#
# Track frame offsets:
#	150
#	15068
#	43250
#	66405
#	90585
#	112302
#	148265
#	181409
#	208270
#	249683
#	282762
#	313739
#
# Disc length: 4535 seconds
#
# Revision: 2
# Processed by: cddbd v1.5.2PL0 Copyright (c) Steve Scherf et al.
# Submitted via: audiograbber 1.83.01
#
DISCID=b811b50c
DTITLE=DJ KC Anderson - Destination Lounge - New York City
DYEAR=2005
DGENRE=Ambient
TTITLE0=Fred Everything and Jay Tripwire - Sometimes I Feel
TTITLE1=Copyright - Mato Grosso
TTITLE2=Sara Devine - Special
TTITLE3=Francois K. - Time And Space
TTITLE4=Blaze - Most Precious Love
TTITLE5=Mateo and Matos - Something I Want To Say
TTITLE6=Luz Devina - You Shine On Me
TTITLE7=Soulsearcher - Feelin' Love
TTITLE8=Mambana - Felicidad
TTITLE9=Octave One - Black Water
TTITLE10=Don Carlos - Love and Devotion
TTITLE11=Kaskade - Everything
EXTD=
EXTT0=
EXTT1=
EXTT2=
EXTT3=
EXTT4=
EXTT5=
EXTT6=
EXTT7=
EXTT8=
EXTT9=
EXTT10=
EXTT11=
PLAYORDER=
